<svg xmlns="http://www.w3.org/2000/svg" xmlns:svg="http://www.w3.org/2000/svg" width="240" height="240"><g class="layer"><title>Layer 1</title><g id="OBJECTS"><g id="svg_2"><g id="svg_3"><g id="svg_4"><g id="svg_5"><g id="svg_6"><rect id="svg_7" width="6.506" height="35.866" x="140.712" y="150.904" fill="#F1EEEB"/><polygon id="svg_8" fill="#F1EEEB" points="142.395 182.2 123.704 190.648 123.97 193.043 143.46 186.769"/><polygon id="svg_9" fill="#F1EEEB" points="145.569 182.2 164.261 190.648 163.995 193.043 144.505 186.769"/></g><circle id="svg_10" cx="124.552" cy="197.321" r="4.467" fill="#02060B"/><circle id="svg_11" cx="164.261" cy="197.321" r="4.467" fill="#02060B"/><path id="svg_12" fill="#8292FD" d="m162.323,153.401l-37.707,0c-2.083,0 -3.771,-1.688 -3.771,-3.771l0,0c0,-2.083 1.688,-3.771 3.771,-3.771l37.707,0c2.083,0 3.771,1.688 3.771,3.771l0,0c0,2.082 -1.688,3.771 -3.771,3.771z"/></g><g id="svg_13"><g id="svg_14"><g id="svg_15"><polygon id="svg_16" fill="#B87F58" points="80.695 173.717 77.387 190.065 85.182 191.421 89.407 175.05"/><g id="svg_17"><g id="svg_18"><path id="svg_19" fill="#121314" d="m77.22,188.078l-15.477,3.341c-1.023,0.261 -1.734,1.189 -1.718,2.245l0,0l24.825,5.427l1.05,-9.224l-8.68,-1.789z"/><rect id="svg_20" width="26.183" height="2.733" x="12.598" y="253.892" fill="#455157" transform="matrix(0.9769 0.2136 -0.2136 0.9769 101.605 -57.1239)"/></g></g></g><path id="svg_21" fill="#A69382" d="m99.456,129.387l-3.183,0.787c-6.628,1.639 -11.887,6.674 -13.814,13.224l-9.379,39.247l17.477,2.871l9.923,-37.495l10.947,-3.624l-11.971,-15.01z"/></g><g id="svg_22"><g id="svg_23"><polygon id="svg_24" fill="#B87F58" points="115.427 170.669 123.026 185.517 129.967 181.72 123.072 166.284"/><g id="svg_25"><g id="svg_26"><path id="svg_27" fill="#121314" d="m121.657,184.067l-10.024,12.257c-0.638,0.841 -0.615,2.01 0.055,2.826l0,0l22.799,-11.223l-4.926,-7.868l-7.904,4.008z"/><rect id="svg_28" width="26.183" height="2.733" x="243.418" y="111.142" fill="#455157" transform="matrix(0.8972 -0.4417 0.4417 0.8972 -156.063 207.084)"/></g></g></g><g id="svg_29"><path id="svg_30" fill="#C4B6A7" d="m119.363,123.294l-18.21,0.757l9.689,20.303l25.192,1.938c0,0 26.326,2.739 24.026,-14.856l-40.697,-8.142z"/><g id="svg_31"><path id="svg_32" fill="#C4B6A7" d="m91.17,136.499l24.499,45.673l16.026,-7.099l-23.601,-51.311l-9.274,0.338c-6.254,0.201 -10.276,6.719 -7.65,12.399z"/></g></g></g></g></g><g id="svg_33"><g id="svg_34"><g id="svg_35"><path id="svg_36" fill="#FFF" d="m119.164,74.785c0,0 -6.882,4.837 -6.882,20.054s2.497,27.105 2.497,27.105l8.72,1.961l-4.335,-49.12z"/><g id="svg_37"><g id="svg_38"><path id="svg_39" fill="#B87F58" d="m103.84,110.305c0,0 -6.252,-1.651 -9.101,2.793c-1.881,2.934 -1.174,4.003 -0.345,5.388c0.457,0.764 1.732,1.74 2.619,1.812c1.948,0.158 5.366,0.815 7.866,-3.309l-1.039,-6.684z"/><path id="svg_40" fill="#B87F58" d="m93.889,114.774l-1.751,6.004c-0.146,0.499 0.18,1.014 0.693,1.096l0,0c0.342,0.055 0.685,-0.1 0.869,-0.394l3.313,-5.279l-3.124,-1.427z"/></g><polygon id="svg_41" fill="#FFF" points="116.232 111.903 103.353 109.933 103.807 118.721 123.298 123.92"/></g></g><g id="svg_42"><path id="svg_43" fill="#FFF" d="m119.363,78.31c0,0 -10.616,11.177 0,44.983l40.697,8.141c0,0 -1.242,-31.461 -11.867,-45.121c-10.625,-13.66 -21.59,-13.724 -21.59,-13.724l-7.24,5.721z"/><path id="svg_44" fill="none" stroke="#DDDADA" stroke-miterlimit="10" stroke-width=".928" d="m114.711,94.142c0,0 0.89,16.214 4.652,29.152"/></g><g id="svg_45"><g id="svg_46"><path id="svg_47" fill="#FFF" d="m127.91,87.542c4.895,7.336 22.622,33.284 22.622,33.284s6.482,7.397 12.188,3.261c8.103,-5.874 -3.09,-21.8 -3.09,-21.8s-12.918,-20.839 -24.921,-27.37c-3.451,-1.877 -5.255,0.443 -5.982,3.129l-1.474,5.448c-0.375,1.384 -0.139,2.854 0.657,4.048z"/><line id="svg_48" x1="132.403" x2="147.218" y1="94.142" y2="115.569" fill="none" stroke="#DDDADA" stroke-miterlimit="10" stroke-width=".928"/></g><g id="svg_49"><g id="svg_50"><path id="svg_51" fill="#B87F58" d="m120.241,110.656c0,0 -6.252,-1.651 -9.101,2.793c-1.881,2.934 -1.174,4.003 -0.345,5.388c0.457,0.764 1.732,1.74 2.619,1.812c1.948,0.158 5.366,0.815 7.866,-3.309l-1.039,-6.684z"/><path id="svg_52" fill="#B87F58" d="m110.291,115.124l-1.751,6.004c-0.146,0.499 0.18,1.014 0.693,1.096l0,0c0.342,0.055 0.685,-0.1 0.869,-0.394l3.313,-5.279l-3.124,-1.427z"/></g><g id="svg_53"><path id="svg_54" fill="#FFF" d="m150.84,112.518c-0.645,0.161 -30.585,-1.879 -30.585,-1.879l1.129,7.257c0,0 16.813,7.16 36.492,7.289l-7.036,-12.667z"/><line id="svg_55" x1="150.206" x2="120.255" y1="112.585" y2="110.639" fill="none" stroke="#DDDADA" stroke-miterlimit="10" stroke-width=".928"/><path id="svg_56" fill="none" stroke="#DDDADA" stroke-miterlimit="10" stroke-width=".928" d="m159.607,125.308c-15.861,1.237 -37.891,-5.783 -37.891,-5.783l-0.435,-2.186"/></g></g></g></g><g id="svg_57"><path id="svg_58" fill="#121314" d="m127.609,121.745l-27.943,0l0,2.017l27.943,0c0.557,0 1.009,-0.452 1.009,-1.008l0,0c0,-0.557 -0.452,-1.009 -1.009,-1.009z"/><g id="svg_59"><path id="svg_60" fill="#455157" d="m63.84,89.169l17.028,0l17.173,34.593l-17.061,0c-1.656,0 -3.168,-0.943 -3.896,-2.431l-14.641,-29.923c-0.505,-1.033 0.247,-2.239 1.397,-2.239z"/><path id="svg_61" fill="#121314" d="m80.869,89.169l0.795,0c1.405,0 2.69,0.794 3.319,2.051l16.271,32.542l-3.212,0l-17.173,-34.593z"/><path id="svg_62" fill="#86969C" d="m79.763,105.69c0.708,1.691 0.451,3.409 -0.574,3.837c-1.024,0.429 -2.428,-0.595 -3.135,-2.285c-0.707,-1.691 -0.451,-3.409 0.574,-3.837c1.024,-0.429 2.427,0.594 3.135,2.285z"/></g></g></g><g id="svg_63"><path id="svg_64" fill="#A06945" d="m107.855,63.708c1.012,1.758 0.408,4.003 -1.35,5.015c-1.758,1.012 -4.003,0.408 -5.015,-1.35c-1.012,-1.758 -0.408,-4.003 1.35,-5.015c1.758,-1.013 4.003,-0.408 5.015,1.35z"/><path id="svg_65" fill="#B87F58" d="m110.405,67.704l5.565,9.936c1.811,3.205 4.138,2.184 7.279,0.376l0,0c2.681,-1.544 4.523,-3.65 3.324,-6.501l-6.221,-12.162l-9.947,8.351z"/><path id="svg_66" fill="#A56C4B" d="m115.492,76.787c0,0 4.764,-3.52 5.57,-12.784c0.211,-2.425 -9.144,6.441 -9.144,6.441l3.574,6.343z"/><path id="svg_67" fill="#B87F58" d="m117.339,70.892l-3.032,1.746c-3.342,1.924 -7.613,0.699 -9.426,-2.705l-5.009,-9.402c-2.273,-4.266 -0.752,-9.565 3.436,-11.976l0,0c4.288,-2.469 10.517,-1.427 12.986,2.861l4.314,8.438c2.026,3.963 0.588,8.818 -3.269,11.038z"/><path id="svg_68" fill="#1F2326" d="m117.671,59.352l-5.752,-7.429c0,0 -6.768,5.181 -12.864,6.437l-0.948,-1.194c-1.432,-2.487 -0.477,-5.667 2.089,-6.953l10.379,-5.192c7.407,-5.069 8.61,8.96 8.61,8.96l-1.514,5.371z"/><g id="svg_69"><path id="svg_70" fill="#B87F58" d="m123.323,54.801c1.012,1.758 0.408,4.003 -1.35,5.015c-1.758,1.012 -4.003,0.408 -5.015,-1.35c-1.012,-1.758 -0.408,-4.003 1.35,-5.015c1.758,-1.012 4.003,-0.408 5.015,1.35z"/><path id="svg_71" fill="none" stroke="#1F2326" stroke-linecap="round" stroke-linejoin="round" stroke-miterlimit="10" stroke-width=".484" d="m119.676,58.548c0,0 -1.329,-2.308 1.087,-3.215"/></g><g id="svg_72"><polyline id="svg_73" fill="none" stroke="#1F2326" stroke-linecap="round" stroke-linejoin="round" stroke-miterlimit="10" stroke-width=".484" points="107.801 66.942 108.35 68.361 109.37 67.773"/><path id="svg_74" fill="#1F2326" d="m109.488,59.892c0,0 -1.867,0.729 -1.377,1.672c0,0 0.345,0.632 1.953,-0.043c1.608,-0.675 1.928,-1.03 1.746,-1.697c-0.182,-0.667 -1.491,-0.356 -2.322,0.068z"/><path id="svg_75" fill="#1F2326" d="m102.882,63.629c0,0 1.35,-0.953 1.946,-0.137c0,0 0.392,0.558 -0.811,1.355c-1.202,0.797 -1.732,0.802 -2.113,0.385c-0.431,-0.472 0.293,-1.229 0.978,-1.603z"/><path id="svg_76" fill="#1F2326" d="m105.237,65.74c0.173,0.337 0.04,0.75 -0.297,0.923c-0.337,0.173 -0.75,0.04 -0.923,-0.297c-0.173,-0.337 -0.04,-0.75 0.297,-0.923c0.336,-0.173 0.75,-0.04 0.923,0.297z"/><path id="svg_77" fill="#1F2326" d="m111.555,62.703c0.173,0.337 0.04,0.75 -0.297,0.923c-0.337,0.173 -0.75,0.04 -0.923,-0.297c-0.173,-0.337 -0.04,-0.75 0.297,-0.923c0.337,-0.173 0.75,-0.04 0.923,0.297z"/><g id="svg_78"><path id="svg_79" fill="none" stroke="#FFF" stroke-miterlimit="10" stroke-width=".538" d="m104.782,63.321c1.772,1.22 2.347,3.639 1.284,5.404c-1.064,1.765 -3.363,2.206 -5.135,0.987c-1.772,-1.22 -2.347,-3.639 -1.284,-5.404s3.363,-2.207 5.135,-0.987z"/><path id="svg_80" fill="none" stroke="#FFF" stroke-miterlimit="10" stroke-width=".558" d="m115.137,60.479c1.06,2.067 0.244,4.603 -1.823,5.663s-4.603,0.244 -5.663,-1.823c-1.06,-2.067 -0.244,-4.602 1.823,-5.663c2.067,-1.06 4.602,-0.244 5.663,1.823z"/><line id="svg_81" x1="106.288" x2="107.728" y1="65.207" y2="64.469" fill="none" stroke="#FFF" stroke-miterlimit="10" stroke-width=".558"/><line id="svg_82" x1="115.094" x2="116.467" y1="60.254" y2="57.798" fill="none" stroke="#FFF" stroke-miterlimit="10" stroke-width=".558"/></g><path id="svg_83" fill="#FFF" d="m108.712,69.837l3.285,-1.825c0,0 0.557,1.217 -0.95,2.076c-1.507,0.859 -2.335,-0.251 -2.335,-0.251z"/></g><path id="svg_84" fill="#1F2326" d="m109.13,51.9c0,0 1.992,4.043 5.689,2.133c4.311,-2.228 -1.543,-4.731 -1.543,-4.731l-4.146,2.598z"/><path id="svg_85" fill="#1F2326" d="m99.054,58.361c0,0 -3.777,0.019 -4.245,-3.688c-0.467,-3.707 3.542,-4.175 3.542,-4.175s-0.946,-2.081 0.951,-3.418c1.897,-1.337 4.607,0.405 4.607,0.405s7.908,-5.598 10.438,-3.469c2.53,2.129 -8.964,8.538 -8.964,8.538l-6.329,5.807z"/><path id="svg_86" fill="#B87F58" d="m126.697,74.575c0,0 -2.129,4.731 -7.66,9.867c0,0 -2.312,-3.402 -2.767,-7.287l10.427,-2.58z"/></g></g></g></g></g></svg>